<svg width="255" height="120" viewBox="0 0 255 120" fill="none" xmlns="http://www.w3.org/2000/svg">
<path d="M255 1.98671L228.306 118.845H182.824L169.311 52.4911L155.798 118.845H59.2951L55.2796 1.98671H123.007L133.552 75.6017L149.371 1.98671H189.247L205.065 75.6017L215.61 1.98671H255Z" fill="#7109AA"/>
<path d="M29.9104 112.243C20.7354 107.075 13.4599 99.9203 8.07504 90.7876C2.69021 81.6549 0 71.3672 0 59.9203C0 48.4779 2.69021 38.1903 8.07504 29.0531C13.4555 19.9204 20.7354 12.7965 29.9104 7.67699C39.0809 2.55752 49.1615 0 60.1476 0C71.1337 0 81.1833 2.55752 90.3009 7.67699C99.4184 12.792 106.641 19.9204 111.968 29.0531C117.296 38.1903 119.959 48.4779 119.959 59.9203C119.959 71.3672 117.296 81.6549 111.968 90.7876C106.637 99.9248 99.3875 107.075 90.217 112.243C81.042 117.416 71.0189 120 60.1432 120C49.1615 120 39.0809 117.416 29.9104 112.243ZM76.9559 78.8186C80.9095 74.1416 82.8885 67.8407 82.8885 59.9203C82.8885 51.8894 80.9095 45.5354 76.9559 40.8584C73.0023 36.1814 67.3966 33.8451 60.1476 33.8451C52.7882 33.8451 47.1295 36.1858 43.1759 40.8584C39.2223 45.5354 37.2433 51.8938 37.2433 59.9203C37.2433 67.8407 39.2223 74.146 43.1759 78.8186C47.1295 83.4956 52.7882 85.8363 60.1476 85.8363C67.3966 85.8318 72.9979 83.4956 76.9559 78.8186Z" fill="#333333"/>
<path d="M83.476 46.0443C80.936 41.6903 77.4904 38.292 73.1436 35.8496C68.7925 33.4071 63.9996 32.1903 58.7605 32.1903C53.5215 32.1903 48.7153 33.4115 44.3421 35.8496C39.9688 38.2876 36.4967 41.6903 33.9302 46.0443C31.3637 50.4027 30.0782 55.3053 30.0782 60.7655C30.0782 66.2257 31.3593 71.1283 33.9302 75.4867C36.4967 79.8451 39.9688 83.2522 44.3421 85.7212C48.7153 88.1903 53.5215 89.4203 58.7605 89.4203C63.9466 89.4203 68.7262 88.1858 73.1039 85.7212C77.4771 83.2566 80.936 79.8451 83.476 75.4867C86.016 71.1327 87.2882 66.2257 87.2882 60.7655C87.2882 55.3053 86.016 50.4027 83.476 46.0443Z" fill="#7109AA"/>
</svg>
